<?xml version="1.0" encoding="UTF-8"?>
<svg version="1.1" xmlns="http://www.w3.org/2000/svg" width="500" height="505">
<path d="M0 0 C165 0 330 0 500 0 C500 166.65 500 333.3 500 505 C335 505 170 505 0 505 C0 338.35 0 171.7 0 0 Z " fill="#FDFEFE" transform="translate(0,0)"/>
<path d="M0 0 C2.10912921 3.16369381 3.01795902 5.89158688 4.1875 9.5 C8.03527742 20.7095002 14.94973186 32.29982124 25 39 C24.94199219 38.34773438 24.88398438 37.69546875 24.82421875 37.0234375 C24.40972449 28.99409145 24.40972449 28.99409145 27.375 25.4375 C31.44337359 21.65972452 34.12525064 21.66035607 39.51953125 21.71484375 C43.03197119 22.11863606 44.67802118 23.38777383 47 26 C49.3037733 29.80242168 49.21497557 32.50154976 48.59765625 36.80859375 C47.62575756 40.37222226 45.98985323 41.9201021 43 44 C39.1875 44.8125 39.1875 44.8125 36 45 C39.06026634 48.26428409 42.26546117 51.01730444 45.8125 53.75 C58.98398429 64.20107372 66.35649226 76.48263442 69 93 C68.59765625 95.4765625 68.59765625 95.4765625 68 97 C67.59910156 96.29875 67.19820313 95.5975 66.78515625 94.875 C60.86306785 84.9914239 52.50800175 75.48855445 40.87231445 72.44311523 C40.25445068 72.29688721 39.63658691 72.15065918 39 72 C41.53734264 105.24055516 48.22402674 136.94332919 73 161 C53.05636314 154.96442569 39.22550507 137.02698486 29.4375 119.5625 C28.81101563 118.44500366 28.81101563 118.44500366 28.171875 117.30493164 C25.81232321 112.93809502 24.17578623 108.82390133 23 104 C22.34 104 21.68 104 21 104 C21.23916515 116.10175658 21.48418921 126.96837842 27 138 C19.11107257 134.49381003 14.93914732 129.03102196 11.90014648 121.14648438 C8.4559526 109.8831941 8.55796174 98.94490454 8.61404419 87.24105835 C8.67580728 67.91265236 7.80297975 50.2517757 2.66748047 31.55908203 C-0.03444074 21.20007028 -0.29510402 10.64013935 0 0 Z " fill="#201E1F" transform="translate(110,164)"/>
<path d="M0 0 C0.33 0 0.66 0 1 0 C1.78044905 14.48166569 -1.27242323 28.75903558 -4.64160156 42.77392578 C-6.71625639 51.54893205 -7.1444415 60.18024758 -7.2109375 69.17578125 C-7.23900458 71.32487743 -7.26766903 73.47396587 -7.296875 75.62304688 C-7.33803686 78.96671336 -7.37498213 82.31023513 -7.40136719 85.65405273 C-7.70960241 121.70960241 -7.70960241 121.70960241 -20 134 C-21.64991582 134.70710678 -23.31562256 135.37943989 -25 136 C-24.72285156 135.20980469 -24.44570312 134.41960937 -24.16015625 133.60546875 C-20.86907048 123.35742586 -20.22815192 113.70032503 -20 103 C-20.66 103 -21.32 103 -22 103 C-22.23460937 103.79921875 -22.46921875 104.5984375 -22.7109375 105.421875 C-26.97333914 117.25326865 -33.57198245 128.69268141 -42 138 C-43.04414062 139.25490234 -43.04414062 139.25490234 -44.109375 140.53515625 C-51.27328181 148.95655734 -59.75296365 155.71487571 -70 160 C-70.66 159.67 -71.32 159.34 -72 159 C-70.948125 158.03513672 -70.948125 158.03513672 -69.875 157.05078125 C-46.11056238 134.41644596 -39.76034651 102.57492725 -38 71 C-39.27210424 71.46004245 -40.54263543 71.92443598 -41.8125 72.390625 C-42.52019531 72.64875977 -43.22789063 72.90689453 -43.95703125 73.17285156 C-46.98487988 74.39875395 -49.38831617 76.04123712 -52 78 C-52.62777344 78.47050781 -53.25554688 78.94101563 -53.90234375 79.42578125 C-59.04854449 83.56447244 -62.30224187 88.16985355 -65.65234375 93.83984375 C-66.09707031 94.55269531 -66.54179688 95.26554687 -67 96 C-67.33 96 -67.66 96 -68 96 C-68.51192347 83.91550356 -63.53961259 73.17156336 -56 64 C-55.19949219 62.97519531 -55.19949219 62.97519531 -54.3828125 61.9296875 C-50.23585429 56.87000164 -45.40065254 52.90459749 -40.2578125 48.8828125 C-37.93290528 47.19956647 -37.93290528 47.19956647 -37 45 C-37.81404297 44.67128906 -37.81404297 44.67128906 -38.64453125 44.3359375 C-42.40892657 42.66739471 -44.60347925 41.56999858 -47 38.125 C-48.09017755 34.71819516 -48.51693327 32.5446853 -48 29 C-45.96006092 25.3421782 -44.49580738 23.33053826 -41 21 C-36.25959913 20.30902631 -32.2434249 20.32647818 -28 22.625 C-23.98934612 27.38765149 -23.75736041 31.93401015 -24 38 C-11.01326331 27.70109201 -5.17443298 15.26849732 0 0 Z " fill="#04BD63" transform="translate(105,165)"/>
<path d="M0 0 C25 0 25 0 31 5 C33.12882466 8.19323698 33.25720438 9.04136757 33.29052734 12.71166992 C33.30328705 13.66663864 33.31604675 14.62160736 33.32919312 15.60551453 C33.33141876 16.63674942 33.33364441 17.66798431 33.3359375 18.73046875 C33.3425943 19.79485672 33.3492511 20.85924469 33.35610962 21.95588684 C33.3662424 24.21121492 33.37092645 26.46657301 33.37060547 28.72192383 C33.37496123 32.15692335 33.41122732 35.59061999 33.44921875 39.02539062 C33.45509038 41.21874562 33.45905745 43.4121067 33.4609375 45.60546875 C33.47530853 46.62658249 33.48967957 47.64769623 33.50448608 48.69975281 C33.46678255 54.64780969 33.09030813 60.35011601 29 65 C23 68 23 68 0 68 C0 45.56 0 23.12 0 0 Z " fill="#030303" transform="translate(427,242)"/>
<path d="M0 0 C3.60713822 3.42215677 6.20632678 7.14235763 6.57794189 12.23841858 C6.5881839 13.32901833 6.5881839 13.32901833 6.59863281 14.44165039 C6.60824036 15.27003922 6.6178479 16.09842804 6.62774658 16.95191956 C6.63199646 17.84563766 6.63624634 18.73935577 6.640625 19.66015625 C6.64632507 20.5866246 6.65202515 21.51309296 6.65789795 22.46763611 C6.66734842 24.43210713 6.67388212 26.39659401 6.67773438 28.36108398 C6.68738439 31.33932006 6.71838407 34.3168494 6.75 37.29492188 C6.75653605 39.20832926 6.76178415 41.12174156 6.765625 43.03515625 C6.7779718 43.91470474 6.7903186 44.79425323 6.80303955 45.70045471 C6.77997894 52.23538943 6.27881571 59.84444447 1.9800415 65.09144592 C-2.20489208 68.89751953 -7.16753412 69.10814691 -12.6171875 68.85546875 C-17.28850316 67.99431109 -20.64869592 66.07587105 -23.5625 62.3125 C-26.36035663 56.09542651 -27.0182841 50.96077275 -26.99609375 44.1875 C-27.0013356 43.24116699 -27.00657745 42.29483398 -27.01197815 41.31982422 C-27.01836839 39.32976253 -27.01710047 37.33966293 -27.00854492 35.34960938 C-27.00002371 32.32092566 -27.02885671 29.29412348 -27.06054688 26.265625 C-27.06215899 24.32291723 -27.06158116 22.38020615 -27.05859375 20.4375 C-27.06982773 19.54144043 -27.08106171 18.64538086 -27.09263611 17.72216797 C-27.02728786 11.7697597 -25.89806959 7.29944111 -22.5625 2.3125 C-16.64863698 -3.24294708 -7.06252087 -3.34540462 0 0 Z " fill="#06BD64" transform="translate(336.5625,159.6875)"/>
<path d="M0 0 C0.9583374 0.00523682 1.9166748 0.01047363 2.90405273 0.01586914 C4.45576172 0.02070313 4.45576172 0.02070313 6.03881836 0.02563477 C7.12743164 0.03401367 8.21604492 0.04239258 9.33764648 0.05102539 C10.97636719 0.05779297 10.97636719 0.05779297 12.64819336 0.06469727 C15.35723144 0.07652713 18.06616248 0.09300996 20.77514648 0.11352539 C21.71526831 8.75700342 22.64178015 17.40189608 23.55651855 26.0480957 C23.70199791 27.42247354 23.84774885 28.79682266 23.99377441 30.17114258 C24.49166897 34.85944043 24.97915831 39.54871934 25.46264648 44.23852539 C25.59388916 45.47489746 25.72513184 46.71126953 25.86035156 47.98510742 C26.54812595 54.73738202 26.90986195 61.32643202 26.77514648 68.11352539 C22.48514648 68.11352539 18.19514648 68.11352539 13.77514648 68.11352539 C13.77514648 64.48352539 13.77514648 60.85352539 13.77514648 57.11352539 C9.32014648 57.60852539 9.32014648 57.60852539 4.77514648 58.11352539 C4.44514648 61.41352539 4.11514648 64.71352539 3.77514648 68.11352539 C-0.51485352 68.11352539 -4.80485352 68.11352539 -9.22485352 68.11352539 C-7.81348931 50.01841437 -6.37508851 31.92712501 -4.59985352 13.86352539 C-4.47698975 12.58654785 -4.35412598 11.30957031 -4.22753906 9.99389648 C-4.11063721 8.83196777 -3.99373535 7.67003906 -3.87329102 6.47290039 C-3.77193848 5.45679688 -3.67058594 4.44069336 -3.56616211 3.39379883 C-3.11628413 0.38817626 -3.0454711 0.15539823 0 0 Z " fill="#050505" transform="translate(242.224853515625,241.886474609375)"/>
<path d="M0 0 C7.59 0 15.18 0 23 0 C25.700497 22.65271267 27.82041725 45.215428 29 68 C25.04 68 21.08 68 17 68 C15.71682108 64.15046324 15.93356363 61.05261865 16 57 C11.545 57.495 11.545 57.495 7 58 C6.67 61.3 6.34 64.6 6 68 C1.71 68 -2.58 68 -7 68 C-6.23774144 59.87190934 -5.47326379 51.7440367 -4.7049036 43.61652088 C-4.34819197 39.84237607 -3.9924444 36.0681456 -3.63891602 32.29370117 C-3.29755375 28.64953327 -2.95363827 25.00561446 -2.60796928 21.36185265 C-2.47669408 19.97331964 -2.346331 18.58470007 -2.21690559 17.19599342 C-2.03513855 15.2473772 -1.84979461 13.29909563 -1.66430664 11.35083008 C-1.5599379 10.2427449 -1.45556915 9.13465973 -1.34803772 7.99299622 C-1.03594606 5.30912291 -0.52989756 2.64948782 0 0 Z " fill="#040404" transform="translate(317,242)"/>
<path d="M0 0 C7.59 0 15.18 0 23 0 C23.78482365 8.12758641 24.56762979 16.25535945 25.34690857 24.38347912 C25.70885745 28.15787466 26.0716819 31.93218171 26.43652344 35.70629883 C26.7887299 39.35005091 27.13861532 42.99401915 27.48690796 46.63814735 C27.62004344 48.02684756 27.75400817 49.41546853 27.88882446 50.80400658 C28.07783271 52.7521812 28.26359177 54.70067022 28.44921875 56.64916992 C28.55580811 57.7572551 28.66239746 58.86534027 28.7722168 60.00700378 C28.97448428 62.66473181 29 65.33458626 29 68 C25.04 68 21.08 68 17 68 C16.34 64.7 15.68 61.4 15 58 C12.36 58 9.72 58 7 58 C6.67 61.3 6.34 64.6 6 68 C1.71 68 -2.58 68 -7 68 C-6.61475984 63.27135072 -6.22385093 58.54321302 -5.828125 53.81542969 C-5.69480481 52.21366451 -5.56292133 50.61177898 -5.43261719 49.00976562 C-4.69519724 39.95651764 -3.78071499 31.00305805 -2.42382812 22.01953125 C-1.78086327 17.43877701 -1.55308473 12.88733428 -1.34570312 8.26757812 C-1.19451408 5.28233563 -0.95194919 2.85584758 0 0 Z " fill="#07BD64" transform="translate(387,159)"/>
<path d="M0 0 C4.29 0 8.58 0 13 0 C13 7.92 13 15.84 13 24 C16.465 23.505 16.465 23.505 20 23 C20.33 15.41 20.66 7.82 21 0 C25.29 0 29.58 0 34 0 C34 22.44 34 44.88 34 68 C29.71 68 25.42 68 21 68 C20.505 52.655 20.505 52.655 20 37 C18.02 37 16.04 37 14 37 C13.67 47.23 13.34 57.46 13 68 C8.71 68 4.42 68 0 68 C0 45.56 0 23.12 0 0 Z " fill="#09BD65" transform="translate(421,159)"/>
<path d="M0 0 C4.29 0 8.58 0 13 0 C13 8.58 13 17.16 13 26 C13.66 26 14.32 26 15 26 C15.02578125 25.46375 15.0515625 24.9275 15.078125 24.375 C15.68449973 15.99600375 17.84306544 8.08599653 20 0 C24.29 0 28.58 0 33 0 C32.26416452 7.31557372 30.53614489 14.21747113 28.640625 21.31054688 C28.30417969 22.64375977 28.30417969 22.64375977 27.9609375 24.00390625 C27.75259277 24.79611572 27.54424805 25.5883252 27.32958984 26.40454102 C26.62641349 31.94192459 28.24594164 37.33378722 29.62890625 42.66796875 C29.94150391 43.89064453 30.25410156 45.11332031 30.57617188 46.37304688 C31.23680909 48.92794684 31.89827512 51.48263262 32.56054688 54.03710938 C33.02750977 55.86532227 33.02750977 55.86532227 33.50390625 57.73046875 C33.93425171 59.39178833 33.93425171 59.39178833 34.37329102 61.08666992 C35 64 35 64 35 68 C30.38 68 25.76 68 21 68 C19.99350302 63.60556231 18.99456433 59.20963916 18 54.8125 C17.71382813 53.56662109 17.42765625 52.32074219 17.1328125 51.03710938 C16.86210937 49.83505859 16.59140625 48.63300781 16.3125 47.39453125 C16.06113281 46.28956299 15.80976563 45.18459473 15.55078125 44.04614258 C15.05011884 41.2771865 14.89049873 38.80368889 15 36 C14.34 36 13.68 36 13 36 C13 46.56 13 57.12 13 68 C8.71 68 4.42 68 0 68 C0 45.56 0 23.12 0 0 Z " fill="#060606" transform="translate(351,242)"/>
<path d="M0 0 C4.29 0 8.58 0 13 0 C13.33 8.25 13.66 16.5 14 25 C14.804375 21.98875 15.60875 18.9775 16.4375 15.875 C16.68943115 14.93769043 16.9413623 14.00038086 17.20092773 13.03466797 C17.40145752 12.27814941 17.6019873 11.52163086 17.80859375 10.7421875 C18.01282959 9.9776123 18.21706543 9.21303711 18.42749023 8.42529297 C19.08385151 5.64478427 19.5303239 2.81805662 20 0 C24.29 0 28.58 0 33 0 C32.16935983 5.46838113 31.32194023 10.87224847 29.94140625 16.23046875 C29.75610352 16.9582251 29.57080078 17.68598145 29.37988281 18.43579102 C29.01195667 19.85540965 28.630574 21.27163495 28.23339844 22.68334961 C25.522605 33.20590542 28.88077107 43.2616369 31.5625 53.5 C32.21157254 56.00991652 32.85880812 58.52030904 33.50390625 61.03125 C33.93425171 62.67963867 33.93425171 62.67963867 34.37329102 64.36132812 C35 67 35 67 35 69 C30.71 69 26.42 69 22 69 C21.01682539 64.9801087 20.03833104 60.95917436 19.0625 56.9375 C18.78470703 55.80376953 18.50691406 54.67003906 18.22070312 53.50195312 C16.89247739 48.01302028 15.64362848 42.61341803 15 37 C14.34 37 13.68 37 13 37 C13 47.56 13 58.12 13 69 C8.71 69 4.42 69 0 69 C0 46.23 0 23.46 0 0 Z " fill="#08BD64" transform="translate(272,158)"/>
<path d="M0 0 C24 0 24 0 30 5 C34.53806304 12.1096321 33.85864076 20.90806063 32.49609375 28.98828125 C31.16020703 34.14098715 29.76763526 37.18831767 25 40 C23 41 23 41 13 41 C13 49.91 13 58.82 13 68 C8.71 68 4.42 68 0 68 C0 45.56 0 23.12 0 0 Z " fill="#050505" transform="translate(197,242)"/>
<path d="M0 0 C3.83838868 1.81818411 5.74296047 3.17782192 7.75 6.875 C8.82874493 10.60911707 8.69407411 13.80606381 8.5625 17.6875 C4.2725 17.6875 -0.0175 17.6875 -4.4375 17.6875 C-5.0975 15.7075 -5.7575 13.7275 -6.4375 11.6875 C-8.0875 12.0175 -9.7375 12.3475 -11.4375 12.6875 C-10.91481534 15.45026177 -10.32880413 18.0135876 -9.4375 20.6875 C-8.7775 20.6875 -8.1175 20.6875 -7.4375 20.6875 C-6.24436531 21.81245556 -5.06044879 22.94908485 -3.9296875 24.13671875 C-2.87888274 25.22878548 -1.79738943 26.29172993 -0.6953125 27.33203125 C-0.09460938 27.90308594 0.50609375 28.47414062 1.125 29.0625 C1.68316406 29.58585937 2.24132812 30.10921875 2.81640625 30.6484375 C7.73083817 36.38743853 9.20492488 40.7969832 9 48.1875 C9.00708984 48.90808594 9.01417969 49.62867188 9.02148438 50.37109375 C8.94892321 56.54437479 7.63142205 61.43645453 3.34375 66.1015625 C-0.27127522 68.16293924 -2.79687227 68.15359381 -6.9375 68.0625 C-8.2265625 68.04960937 -9.515625 68.03671875 -10.84375 68.0234375 C-14.86086306 67.64792476 -18.08342234 67.30442803 -20.765625 64.1015625 C-21.06984375 63.51117188 -21.3740625 62.92078125 -21.6875 62.3125 C-22.00203125 61.72726563 -22.3165625 61.14203125 -22.640625 60.5390625 C-25.13592858 54.74115124 -24.50513286 48.90972285 -24.4375 42.6875 C-20.1475 42.6875 -15.8575 42.6875 -11.4375 42.6875 C-11.1075 46.6475 -10.7775 50.6075 -10.4375 54.6875 C-6.80130344 55.76834521 -6.80130344 55.76834521 -4.4375 55.6875 C-4.3446875 53.893125 -4.3446875 53.893125 -4.25 52.0625 C-4.21519531 51.38960937 -4.18039063 50.71671875 -4.14453125 50.0234375 C-4.90183033 43.98523953 -8.53054233 40.31290429 -12.8125 36.3125 C-19.83438766 29.43947405 -23.79949009 25.21346816 -24 15.0625 C-24.00594829 9.29266222 -23.02327678 6.22814843 -19.4375 1.6875 C-14.06189374 -3.05568199 -6.40893589 -2.23485034 0 0 Z " fill="#07BC64" transform="translate(224.4375,159.3125)"/>
<path d="M0 0 C8.91 0 17.82 0 27 0 C27 3.96 27 7.92 27 12 C22.38 12 17.76 12 13 12 C13.33 16.62 13.66 21.24 14 26 C17.96 26 21.92 26 26 26 C26 29.96 26 33.92 26 38 C20.06 38.495 20.06 38.495 14 39 C14 44.28 14 49.56 14 55 C20.93 55.495 20.93 55.495 28 56 C28 59.96 28 63.92 28 68 C18.76 68 9.52 68 0 68 C0 45.56 0 23.12 0 0 Z " fill="#03BD62" transform="translate(239,159)"/>
<path d="M0 0 C4.29 0 8.58 0 13 0 C13.07434703 7.68633933 13.12869623 15.37246771 13.16479492 23.05908203 C13.17984933 25.67207487 13.2002973 28.28504258 13.22631836 30.89794922 C13.26284778 34.66119605 13.2797604 38.42410775 13.29296875 42.1875 C13.30845261 43.34926758 13.32393646 44.51103516 13.33988953 45.70800781 C13.34142126 53.14747531 13.14821675 59.76669631 7.6875 65.375 C1.39353175 69.18065522 -3.89856136 69.59349355 -11 68 C-15.5176261 65.70011762 -17.74411687 63.49189599 -20 59 C-20.34057617 56.32104492 -20.34057617 56.32104492 -20.29296875 53.48046875 C-20.28330078 52.45888672 -20.27363281 51.43730469 -20.26367188 50.38476562 C-20.23853516 49.32966797 -20.21339844 48.27457031 -20.1875 47.1875 C-20.17396484 46.11306641 -20.16042969 45.03863281 -20.14648438 43.93164062 C-20.11122976 41.28754459 -20.05742566 38.64370744 -20 36 C-15.71 36 -11.42 36 -7 36 C-6.67 42.93 -6.34 49.86 -6 57 C-4.35 56.34 -2.7 55.68 -1 55 C-0.67 36.85 -0.34 18.7 0 0 Z " fill="#030303" transform="translate(293,242)"/>
<path d="M0 0 C4.29 0 8.58 0 13 0 C13 19.14 13 38.28 13 58 C17.62 58 22.24 58 27 58 C27 61.63 27 65.26 27 69 C18.09 69 9.18 69 0 69 C0 46.23 0 23.46 0 0 Z " fill="#07BD64" transform="translate(350,158)"/>
<path d="M0 0 C4.29 0 8.58 0 13 0 C13 22.44 13 44.88 13 68 C8.71 68 4.42 68 0 68 C0 45.56 0 23.12 0 0 Z " fill="#0A0A0A" transform="translate(407,242)"/>
<path d="M0 0 C-0.5259375 1.11375 -0.5259375 1.11375 -1.0625 2.25 C-2.06789411 5.19915607 -2.04332005 6.15458168 -1 9 C-0.67 9.99 -0.34 10.98 0 12 C-0.66386719 12.15855469 -1.32773438 12.31710938 -2.01171875 12.48046875 C-7.59245404 13.9550864 -11.5065504 15.13034298 -15 20 C-16.21925402 22.9490087 -17.17440648 25.91912661 -18 29 C-19.46484375 27.73046875 -20.9296875 26.4609375 -22.39453125 25.19140625 C-24.10712971 23.79128769 -24.10712971 23.79128769 -27 23 C-27.33 23.66 -27.66 24.32 -28 25 C-28.66 25 -29.32 25 -30 25 C-29.34588315 23.32836805 -28.67543927 21.66313079 -28 20 C-27.33291016 18.34677734 -27.33291016 18.34677734 -26.65234375 16.66015625 C-23.37327236 9.78082879 -20.82195286 5.67120796 -13.50805664 2.88061523 C-4.66144992 0 -4.66144992 0 0 0 Z " fill="#0BB965" transform="translate(71,169)"/>
<path d="M0 0 C2.70508022 0.58344868 5.33272185 1.26929356 8 2 C9.02609375 2.22558594 10.0521875 2.45117188 11.109375 2.68359375 C17.92252884 4.61078867 21.55989004 6.96367287 25.16430664 12.97216797 C26.97027843 16.27674309 28.593779 19.49998586 30 23 C29.67 23.66 29.34 24.32 29 25 C28.34 23.68 27.68 22.36 27 21 C26.34 21 25.68 21 25 21 C25.33 21.99 25.66 22.98 26 24 C25.4225 24.103125 24.845 24.20625 24.25 24.3125 C21.67950842 25.09792798 20.06342716 26.30504197 18 28 C17.649375 26.80375 17.29875 25.6075 16.9375 24.375 C15.10814862 19.5537188 12.4135352 16.64117067 8 14 C5.30381933 13.01957067 2.84393161 12.49893537 0 12 C0.350625 11.443125 0.70125 10.88625 1.0625 10.3125 C2.58507353 6.55681863 1.23891627 3.7167488 0 0 Z " fill="#201E1F" transform="translate(145,169)"/>
<path d="M0 0 C1.65 0 3.3 0 5 0 C7.37046531 2.37046531 7.25183138 2.83404172 7.25878906 6.05078125 C7.26509338 6.88504639 7.27139771 7.71931152 7.27789307 8.57885742 C7.2738446 9.48095947 7.26979614 10.38306152 7.265625 11.3125 C7.26753845 12.23716064 7.2694519 13.16182129 7.27142334 14.11450195 C7.27278566 16.07145459 7.26908596 18.02841624 7.26074219 19.98535156 C7.25004334 22.9878359 7.26063591 25.98972187 7.2734375 28.9921875 C7.27211591 30.89062633 7.26955354 32.78906478 7.265625 34.6875 C7.26967346 35.58960205 7.27372192 36.4917041 7.27789307 37.42114258 C7.27158875 38.25540771 7.26528442 39.08967285 7.25878906 39.94921875 C7.25719788 40.68487061 7.25560669 41.42052246 7.25396729 42.1784668 C7 44 7 44 5 46 C3.35 46 1.7 46 0 46 C0 30.82 0 15.64 0 0 Z " fill="#F3F3F3" transform="translate(440,253)"/>
<path d="M0 0 C2.5 0.125 2.5 0.125 3.5 1.125 C3.60301414 2.46493616 3.63848453 3.81017965 3.64526367 5.15405273 C3.65483345 6.43559486 3.65483345 6.43559486 3.66459656 7.74302673 C3.66570938 8.67216385 3.6668222 9.60130096 3.66796875 10.55859375 C3.67129715 11.50686539 3.67462555 12.45513702 3.67805481 13.43214417 C3.68312819 15.44214389 3.68546301 17.45215208 3.68530273 19.4621582 C3.68748822 22.54587619 3.70563683 25.62923606 3.72460938 28.71289062 C3.72754334 30.6614571 3.72952812 32.61002529 3.73046875 34.55859375 C3.73765427 35.48570663 3.74483978 36.41281952 3.75224304 37.36802673 C3.74916641 38.22554031 3.74608978 39.08305389 3.74291992 39.96655273 C3.74434494 40.72298569 3.74576996 41.47941864 3.74723816 42.2587738 C3.5 44.125 3.5 44.125 1.5 46.125 C-2.03571429 45.58928571 -2.03571429 45.58928571 -3.5 44.125 C-3.59785341 42.77955673 -3.62797985 41.42907437 -3.62939453 40.08007812 C-3.63254669 39.22248901 -3.63569885 38.3648999 -3.63894653 37.48132324 C-3.6369223 36.54904907 -3.63489807 35.6167749 -3.6328125 34.65625 C-3.63376923 33.70560669 -3.63472595 32.75496338 -3.63571167 31.7755127 C-3.63639357 29.76131118 -3.63453862 27.74710748 -3.63037109 25.73291016 C-3.62502298 22.63829645 -3.63031577 19.5438279 -3.63671875 16.44921875 C-3.63605797 14.49739551 -3.63477681 12.54557236 -3.6328125 10.59375 C-3.63483673 9.66147583 -3.63686096 8.72920166 -3.63894653 7.76867676 C-3.63579437 6.91108765 -3.63264221 6.05349854 -3.62939453 5.16992188 C-3.62859894 4.41126831 -3.62780334 3.65261475 -3.62698364 2.87097168 C-3.4210096 0.03891519 -2.8376936 0.14188468 0 0 Z " fill="#F4FAF8" transform="translate(326.5,169.875)"/>
<path d="M0 0 C0.66 0 1.32 0 2 0 C3.10516231 9.17392015 4.11587148 18.33790692 4.6875 27.5625 C4.73575928 28.2939624 4.78401855 29.0254248 4.83374023 29.77905273 C4.93227431 31.51746043 4.97222982 33.25902352 5 35 C4 36 4 36 0.9375 36.0625 C-0.031875 36.041875 -1.00125 36.02125 -2 36 C-2.11958617 28.47935868 -1.96637836 21.00891872 -1.5625 13.5 C-1.52326416 12.73510254 -1.48402832 11.97020508 -1.44360352 11.18212891 C-1.22478979 7.37451814 -0.87719423 3.71517556 0 0 Z " fill="#EAEAEA" transform="translate(327,253)"/>
<path d="M0 0 C8.91 0 17.82 0 27 0 C27 3.96 27 7.92 27 12 C22.38 12.33 17.76 12.66 13 13 C12.67 17.29 12.34 21.58 12 26 C11.67 26 11.34 26 11 26 C10.97314905 23.52076199 10.95323453 21.0418116 10.9375 18.5625 C10.92493164 17.50192383 10.92493164 17.50192383 10.91210938 16.41992188 C10.90346412 14.61306441 10.94779989 12.80612397 11 11 C11.33 10.67 11.66 10.34 12 10 C14.35694954 10.09031574 16.71153582 10.24688128 19.0625 10.4375 C20.35285156 10.53933594 21.64320313 10.64117187 22.97265625 10.74609375 C24.47119141 10.87177734 24.47119141 10.87177734 26 11 C26 7.7 26 4.4 26 1 C17.75 1 9.5 1 1 1 C1 22.78 1 44.56 1 67 C7.27 67 13.54 67 20 67 C20 67.33 20 67.66 20 68 C13.4 68 6.8 68 0 68 C0 45.56 0 23.12 0 0 Z " fill="#0EAE61" transform="translate(239,159)"/>
<path d="M0 0 C0.66 0 1.32 0 2 0 C2.45364223 4.64403399 2.89899171 9.2887604 3.33666992 13.93432617 C3.48673399 15.51462243 3.63906314 17.09470531 3.79370117 18.67456055 C4.01556513 20.94527752 4.22927553 23.21663693 4.44140625 25.48828125 C4.51218887 26.19463211 4.5829715 26.90098297 4.65589905 27.6287384 C4.94545454 30.80875745 5.02294162 32.93117513 4 36 C2.02 36 0.04 36 -2 36 C-1.85899586 32.06231191 -1.71129067 28.12490095 -1.5625 24.1875 C-1.52318359 23.08728516 -1.48386719 21.98707031 -1.44335938 20.85351562 C-1.1757452 13.87496137 -0.71160177 6.94750339 0 0 Z " fill="#EAEAEA" transform="translate(250,253)"/>
<path d="M0 0 C0.66 0 1.32 0 2 0 C2.45508907 4.32239247 2.90034157 8.64565371 3.33666992 12.9699707 C3.48633965 14.43964652 3.63865216 15.90905578 3.79370117 17.37817383 C4.01663314 19.49495233 4.22991367 21.61252046 4.44140625 23.73046875 C4.63778687 25.63928833 4.63778687 25.63928833 4.83813477 27.58666992 C4.98364996 30.65521882 4.77241086 33.04608371 4 36 C2.33388095 36.042721 0.66617115 36.04063832 -1 36 C-2 35 -2 35 -2.1328125 33.17626953 C-2.10976001 26.04008297 -1.61159736 18.98275308 -1 11.875 C-0.90460938 10.72773438 -0.80921875 9.58046875 -0.7109375 8.3984375 C-0.47762017 5.59862951 -0.2405706 2.79919247 0 0 Z " fill="#EFFCF7" transform="translate(397,170)"/>
<path d="M0 0 C4.29 0 8.58 0 13 0 C13 3.63 13 7.26 13 11 C8.71 11 4.42 11 0 11 C0 7.37 0 3.74 0 0 Z " fill="#0B0B0B" transform="translate(389,299)"/>
<path d="M0 0 C1.98 0 3.96 0 6 0 C8.13749925 3.20624887 8.29574999 4.22458103 8.3125 7.9375 C8.33763672 9.21947266 8.33763672 9.21947266 8.36328125 10.52734375 C7.93504169 13.4421356 6.92290461 14.81326679 5 17 C3.35 16.67 1.7 16.34 0 16 C0 10.72 0 5.44 0 0 Z " fill="#E2E2E2" transform="translate(209,254)"/>
<path d="M0 0 C1.32 0.33 2.64 0.66 4 1 C-3.54930091 8.09224511 -11.31606936 14.98471169 -21 19 C-21.66 18.67 -22.32 18.34 -23 18 C-19.33333333 14.33333333 -15.66666667 10.66666667 -12 7 C-11.26265625 6.22140625 -10.5253125 5.4428125 -9.765625 4.640625 C-8 3 -8 3 -6 3 C-5.34 2.835 -4.68 2.67 -4 2.5 C-2 2 -2 2 0 2 C0 1.34 0 0.68 0 0 Z " fill="#11BB68" transform="translate(56,306)"/>
<path d="M0 0 C0.33 0 0.66 0 1 0 C1.25608138 16.81601061 1.25608138 16.81601061 0 21 C-2.5625 23.5625 -2.5625 23.5625 -5 25 C-5.33 24.01 -5.66 23.02 -6 22 C-7.65 23.98 -9.3 25.96 -11 28 C-11.66 27.67 -12.32 27.34 -13 27 C-12.62488281 26.48953125 -12.24976562 25.9790625 -11.86328125 25.453125 C-6.31918776 17.57688135 -2.97227223 9.11947162 0 0 Z " fill="#09B964" transform="translate(105,165)"/>
<path d="M0 0 C0.33 0.66 0.66 1.32 1 2 C0.01 2.33 -0.98 2.66 -2 3 C-1.01 3.99 -0.02 4.98 1 6 C0.32453125 6.07476562 -0.3509375 6.14953125 -1.046875 6.2265625 C-6.98828899 7.06509091 -6.98828899 7.06509091 -11.5625 10.75 C-12.96158337 13.91314502 -13.67305609 16.56708891 -14 20 C-14.33 20 -14.66 20 -15 20 C-15.33 18.35 -15.66 16.7 -16 15 C-16.66 15.99 -17.32 16.98 -18 18 C-17.56486181 12.56077257 -16.60096721 9.15496216 -13 5 C-8.97224239 2.35415086 -4.80706333 0.60088292 0 0 Z " fill="#DDF8ED" transform="translate(71,180)"/>
<path d="M0 0 C0.598125 0.804375 1.19625 1.60875 1.8125 2.4375 C3.80947276 5.22327984 3.80947276 5.22327984 7 6 C-0.29840547 15.41002278 -0.29840547 15.41002278 -4 20 C-4.66268329 12.87615459 -2.25388064 6.69120815 0 0 Z " fill="#13B868" transform="translate(41,241)"/>
<path d="M0 0 C2.17515859 3.26273789 3.31011941 6.30910713 4.625 10 C5.07101563 11.2375 5.51703125 12.475 5.9765625 13.75 C7 17 7 17 7 20 C6.071875 19.690625 6.071875 19.690625 5.125 19.375 C4.42375 19.25125 3.7225 19.1275 3 19 C2.34 19.66 1.68 20.32 1 21 C-0.32719886 14.03220597 -0.08825381 7.07011089 0 0 Z " fill="#252425" transform="translate(110,164)"/>
<path d="M0 0 C0.66 0 1.32 0 2 0 C2.98248524 4.0527516 3.08159574 7.83861737 3 12 C2.34 12 1.68 12 1 12 C0.67 13.65 0.34 15.3 0 17 C-0.33 17 -0.66 17 -1 17 C-1.02721176 15.10424749 -1.04649136 13.20838021 -1.0625 11.3125 C-1.07410156 10.25675781 -1.08570313 9.20101563 -1.09765625 8.11328125 C-1.00865425 5.27589738 -0.64939838 2.7561081 0 0 Z " fill="#B6B6B6" transform="translate(327,253)"/>
<path d="M0 0 C3.96 0 7.92 0 12 0 C12 0.33 12 0.66 12 1 C8.7 1.33 5.4 1.66 2 2 C2 6.29 2 10.58 2 15 C-1.16420858 10.25368713 -0.12112755 5.63243123 0 0 Z " fill="#29B874" transform="translate(200,202)"/>
<path d="M0 0 C4.29 0 8.58 0 13 0 C13 0.66 13 1.32 13 2 C11.35 2.66 9.7 3.32 8 4 C8 3.34 8 2.68 8 2 C5.36 2 2.72 2 0 2 C0 1.34 0 0.68 0 0 Z " fill="#25B672" transform="translate(364,216)"/>
<path d="M0 0 C0.66 0 1.32 0 2 0 C2 6.27 2 12.54 2 19 C1.67 19 1.34 19 1 19 C0.67 14.38 0.34 9.76 0 5 C-0.99 5.495 -0.99 5.495 -2 6 C-1.34 4.02 -0.68 2.04 0 0 Z " fill="#DFF8ED" transform="translate(83,268)"/>
<path d="M0 0 C0.66 0 1.32 0 2 0 C2.33 4.29 2.66 8.58 3 13 C2.01 12.67 1.02 12.34 0 12 C0 8.04 0 4.08 0 0 Z " fill="#D4F7E6" transform="translate(397,170)"/>
<path d="M0 0 C0.33 0 0.66 0 1 0 C1 3.96 1 7.92 1 12 C0.01 12.495 0.01 12.495 -1 13 C-1 12.01 -1 11.02 -1 10 C-1.66 9.67 -2.32 9.34 -3 9 C-2.01 6.03 -1.02 3.06 0 0 Z " fill="#2EBA75" transform="translate(105,165)"/>
<path d="M0 0 C2.8125 0.0625 2.8125 0.0625 6 1 C7.4926041 3.27444434 8.14242011 5.37961699 9 8 C5.56247993 6.4722133 2.81046312 4.49818944 0 2 C0 1.34 0 0.68 0 0 Z " fill="#2D2D2D" transform="translate(128,294)"/>
<path d="M0 0 C0.99 0.99 1.98 1.98 3 3 C-2.625 6.875 -2.625 6.875 -6 8 C-6.33 6.68 -6.66 5.36 -7 4 C-3.535 3.505 -3.535 3.505 0 3 C0 2.01 0 1.02 0 0 Z " fill="#17BA6E" transform="translate(56,236)"/>
<path d="M0 0 C0.33 0 0.66 0 1 0 C1.33 1.65 1.66 3.3 2 5 C2.66 4.01 3.32 3.02 4 2 C4.125 5.375 4.125 5.375 4 9 C3.34 9.66 2.68 10.32 2 11 C1.34 11 0.68 11 0 11 C0 7.37 0 3.74 0 0 Z " fill="#B0EDD0" transform="translate(377,216)"/>
<path d="M0 0 C2.45823172 3.68734758 3.01242616 6.69699971 4 11 C3.34 10.67 2.68 10.34 2 10 C1.34 11.32 0.68 12.64 0 14 C0 9.38 0 4.76 0 0 Z " fill="#3B3B3B" transform="translate(110,164)"/>
<path d="M0 0 C1.32 0.66 2.64 1.32 4 2 C0.8745041 4.64465038 -2.08788267 5.84414715 -6 7 C-4.02 4.69 -2.04 2.38 0 0 Z " fill="#25B970" transform="translate(39,318)"/>
<path d="M0 0 C1.16278786 4.65115142 0.59545159 5.58492845 -1.4375 9.75 C-1.91058594 10.73484375 -2.38367187 11.7196875 -2.87109375 12.734375 C-3.24363281 13.48203125 -3.61617187 14.2296875 -4 15 C-4.99 14.67 -5.98 14.34 -7 14 C-4.69 9.38 -2.38 4.76 0 0 Z " fill="#14B468" transform="translate(56,291)"/>
<path d="M0 0 C0.66 0 1.32 0 2 0 C3.28317892 3.84953676 3.06643637 6.94738135 3 11 C1 7.25 1 7.25 1 5 C0.01 4.67 -0.98 4.34 -2 4 C-1.34 2.68 -0.68 1.36 0 0 Z " fill="#19BD6D" transform="translate(102,175)"/>
<path d="M0 0 C0.99 0 1.98 0 3 0 C3.75 1.6875 3.75 1.6875 4 4 C2.0625 6.75 2.0625 6.75 0 9 C0 6 0 3 0 0 Z " fill="#11B969" transform="translate(68,287)"/>
<path d="M0 0 C0.66 0.99 1.32 1.98 2 3 C1.38125 3.5775 0.7625 4.155 0.125 4.75 C-1.81347053 6.80249821 -2.90014249 8.43366582 -4 11 C-4.75 9.375 -4.75 9.375 -5 7 C-3.50594347 4.4601039 -2.09462345 2.09462345 0 0 Z " fill="#11B566" transform="translate(316,160)"/>
<path d="M0 0 C2.475 0.99 2.475 0.99 5 2 C5 3.32 5 4.64 5 6 C3.68 6.33 2.36 6.66 1 7 C1.33 6.01 1.66 5.02 2 4 C1.01 3.34 0.02 2.68 -1 2 C-0.67 1.34 -0.34 0.68 0 0 Z " fill="#21C074" transform="translate(66,206)"/>
<path d="M0 0 C0.99 0.33 1.98 0.66 3 1 C3.33 1.99 3.66 2.98 4 4 C3.34 4.66 2.68 5.32 2 6 C-0.125 5.625 -0.125 5.625 -2 5 C-1.34 5 -0.68 5 0 5 C-0.2784375 4.0409375 -0.2784375 4.0409375 -0.5625 3.0625 C-0.7790625 2.0415625 -0.7790625 2.0415625 -1 1 C-0.67 0.67 -0.34 0.34 0 0 Z " fill="#03B55D" transform="translate(45,312)"/>
<path d="M0 0 C2.29013653 3.4352048 2.17842973 4.985331 2 9 C2.66 9.33 3.32 9.66 4 10 C2.02 10.99 2.02 10.99 0 12 C0 8.04 0 4.08 0 0 Z " fill="#AEEACF" transform="translate(80,192)"/>
<path d="M0 0 C0.33 1.32 0.66 2.64 1 4 C-0.875 4.625 -0.875 4.625 -3 5 C-3.66 4.34 -4.32 3.68 -5 3 C-2.25 0 -2.25 0 0 0 Z " fill="#04BE60" transform="translate(49,186)"/>
<path d="M0 0 C0.33 0.66 0.66 1.32 1 2 C0.01 2.33 -0.98 2.66 -2 3 C-1.67 3.66 -1.34 4.32 -1 5 C-1.99 5 -2.98 5 -4 5 C-4 4.34 -4 3.68 -4 3 C-5.32 2.67 -6.64 2.34 -8 2 C-5.36 1.34 -2.72 0.68 0 0 Z " fill="#C6F3DF" transform="translate(71,180)"/>
<path d="M0 0 C1.485 0.99 1.485 0.99 3 2 C3.29296875 4.1640625 3.29296875 4.1640625 3.1875 6.625 C3.16042969 7.44226563 3.13335937 8.25953125 3.10546875 9.1015625 C3.07066406 9.72804687 3.03585937 10.35453125 3 11 C2.67 11 2.34 11 2 11 C2 8.36 2 5.72 2 3 C1.01 3.33 0.02 3.66 -1 4 C-0.67 2.68 -0.34 1.36 0 0 Z " fill="#26BC72" transform="translate(397,167)"/>
</svg>
