<svg width="1246" height="1296" viewBox="0 0 1246 1296" fill="none" xmlns="http://www.w3.org/2000/svg">
<path d="M200.099 3H571.93C579.789 3 589.871 6.67554 589.349 14.5177C588.826 22.3601 579.789 24.5653 571.929 24.5653H206.283C204.776 24.5653 203.231 24.6814 201.743 24.9219C-14.7943 59.9004 -51.5049 367.155 200.742 425.722C202.867 426.215 205.119 426.465 207.301 426.465H1042.78C1287.02 446.012 1330.6 818.298 1045.34 869.089C1043.68 869.385 1041.94 869.535 1040.25 869.535H243.213C-25.271 861.693 -58.5865 1236.15 223.614 1269.47H595.958C602.455 1269.47 607.721 1274.74 607.721 1281.24C607.721 1287.73 602.455 1293 595.958 1293H206.148C203.434 1293 200.618 1292.61 198.009 1291.85C-114.478 1201.92 -4.78561 869.443 202.059 847.97H1038.86H1042.78C1251.61 822.588 1304.95 507.492 1042.14 446.809C1040.02 446.319 1037.77 446.07 1035.59 446.07H203.051C201.088 446.07 199.053 445.866 197.131 445.467C-85.6533 386.729 -32.3006 30.3515 200.099 3Z" fill="#0360ED" stroke="#0360ED" stroke-width="6"/>
</svg>
